<?xml version="1.0" encoding="UTF-8" standalone="no"?>
<!DOCTYPE svg PUBLIC "-//W3C//DTD SVG 1.1//EN" "http://www.w3.org/Graphics/SVG/1.1/DTD/svg11.dtd">
<svg width="100%" height="100%" viewBox="0 0 512 512" version="1.1" xmlns="http://www.w3.org/2000/svg" xmlns:xlink="http://www.w3.org/1999/xlink" xml:space="preserve" xmlns:serif="http://www.serif.com/" style="fill-rule:evenodd;clip-rule:evenodd;stroke-linejoin:round;stroke-miterlimit:2;">
    <path d="M256,32C132.3,32 32,132.3 32,256C32,347.7 87.2,426.5 166.1,461.2C165.5,445.6 166,426.8 170,409.8C174.3,391.6 198.8,287.7 198.8,287.7C198.8,287.7 191.6,273.4 191.6,252.3C191.6,219.1 210.8,194.3 234.8,194.3C255.2,194.3 265,209.6 265,227.9C265,248.4 251.9,279 245.2,307.4C239.6,331.2 257.1,350.5 280.6,350.5C323,350.5 351.6,296 351.6,231.4C351.6,182.3 318.5,145.6 258.4,145.6C190.5,145.6 148.1,196.3 148.1,252.9C148.1,272.4 153.9,286.2 162.9,296.8C167,301.7 167.6,303.7 166.1,309.3C165,313.4 162.6,323.3 161.5,327.3C160,333 155.4,335 150.3,332.9C119,320.1 104.4,285.9 104.4,247.3C104.4,183.7 158.1,107.4 264.5,107.4C350,107.4 406.3,169.3 406.3,235.7C406.3,323.6 357.4,389.2 285.4,389.2C261.2,389.2 238.5,376.1 230.7,361.3C230.7,361.3 217.7,412.9 214.9,422.9C210.2,440.2 200.9,457.4 192.4,470.9C212.5,476.8 233.8,480.1 255.9,480.1C379.6,480.1 479.9,379.8 479.9,256.1C480,132.3 379.7,32 256,32Z" style="fill:rgb(210,45,47);fill-rule:nonzero;"/>
</svg>
