<?xml version="1.0" encoding="UTF-8" standalone="no"?>
<!DOCTYPE svg PUBLIC "-//W3C//DTD SVG 1.1//EN" "http://www.w3.org/Graphics/SVG/1.1/DTD/svg11.dtd">
<svg width="100%" height="100%" viewBox="0 0 512 512" version="1.1" xmlns="http://www.w3.org/2000/svg" xmlns:xlink="http://www.w3.org/1999/xlink" xml:space="preserve" xmlns:serif="http://www.serif.com/" style="fill-rule:evenodd;clip-rule:evenodd;stroke-linejoin:round;stroke-miterlimit:2;">
    <path d="M417.2,64L96.8,64C79.3,64 64,76.6 64,93.9L64,415C64,432.4 79.3,447.9 96.8,447.9L417.1,447.9C434.7,447.9 447.9,432.3 447.9,415L447.9,93.9C448,76.6 434.7,64 417.2,64ZM183,384L128,384L128,213L183,213L183,384ZM157.4,187L157,187C139.4,187 128,173.9 128,157.5C128,140.8 139.7,128 157.7,128C175.7,128 186.7,140.7 187.1,157.5C187.1,173.9 175.7,187 157.4,187ZM384,384L329,384L329,290.5C329,268.1 321,252.8 301.1,252.8C285.9,252.8 276.9,263.1 272.9,273.1C271.4,276.7 271,281.6 271,286.6L271,384L216,384L216,213L271,213L271,236.8C279,225.4 291.5,209 320.6,209C356.7,209 384,232.8 384,284.1L384,384Z" style="fill:rgb(48,113,171);fill-rule:nonzero;"/>
</svg>
