<?xml version="1.0" encoding="UTF-8" standalone="no"?>
<!DOCTYPE svg PUBLIC "-//W3C//DTD SVG 1.1//EN" "http://www.w3.org/Graphics/SVG/1.1/DTD/svg11.dtd">
<svg width="100%" height="100%" viewBox="0 0 512 512" version="1.1" xmlns="http://www.w3.org/2000/svg" xmlns:xlink="http://www.w3.org/1999/xlink" xml:space="preserve" xmlns:serif="http://www.serif.com/" style="fill-rule:evenodd;clip-rule:evenodd;stroke-linejoin:round;stroke-miterlimit:2;">
    <path d="M508.6,148.8C508.6,103.8 475.5,67.6 434.6,67.6C379.2,65 322.7,64 265,64L247,64C189.4,64 132.8,65 77.4,67.6C36.6,67.6 3.5,104 3.5,149C1,184.6 -0.1,220.2 0,255.8C-0.1,291.4 1,327 3.4,362.7C3.4,407.7 36.5,444.2 77.3,444.2C135.5,446.9 195.2,448.1 255.9,448C316.7,448.2 376.2,447 434.5,444.2C475.4,444.2 508.5,407.7 508.5,362.7C510.9,327 512,291.4 511.9,255.7C512.1,220.1 511,184.5 508.6,148.8ZM207,353.9L207,157.4L352,255.6L207,353.9Z" style="fill:rgb(232,50,35);fill-rule:nonzero;"/>
</svg>
