<?xml version="1.0" encoding="UTF-8" standalone="no"?>
<svg
   xmlns:dc="http://purl.org/dc/elements/1.1/"
   xmlns:cc="http://creativecommons.org/ns#"
   xmlns:rdf="http://www.w3.org/1999/02/22-rdf-syntax-ns#"
   xmlns:svg="http://www.w3.org/2000/svg"
   xmlns="http://www.w3.org/2000/svg"
   viewBox="0 0 480 311.29333"
   height="311.29333"
   width="480"
   xml:space="preserve"
   id="svg2"
   version="1.1"><metadata
     id="metadata8"><rdf:RDF><cc:Work
         rdf:about=""><dc:format>image/svg+xml</dc:format><dc:type
           rdf:resource="http://purl.org/dc/dcmitype/StillImage" /></cc:Work></rdf:RDF></metadata><defs
     id="defs6" /><g
     transform="matrix(1.3333333,0,0,-1.3333333,0,311.29333)"
     id="g10"><g
       transform="scale(0.1)"
       id="g12"><path
         id="path14"
         style="fill:#231f20;fill-opacity:1;fill-rule:nonzero;stroke:none"
         d="m 231.691,1208.02 c -2.601,0 -5.246,0.44 -7.816,1.3 -39.238,13.19 -138.4414,51.89 -212.1914,126.39 -7.42969,7.51 -11.67969375,18.08 -11.67969375,28.99 v 50.45 c 0,13.34 6.66015375,25.63 17.81249375,32.89 50,32.55 307.9766,200.06 476.1446,300.96 175.773,105.47 251.402,200.3 299.699,375.8 7.215,26.25 20.258,50.66 37.684,70.62 l 1.633,1.87 c 31.175,35.71 83.339,95.48 164.921,126.63 25.862,9.87 54.822,13.08 83.862,9.24 4.55,-0.59 7.93,-4.51 7.86,-9.12 -0.05,-4.6 -3.58,-8.43 -8.15,-8.9 -0.41,-0.05 -41.1,-4.58 -53.85,-38.37 -8.86,-23.45 -6.22,-42.29 -2.44,-53.96 1.61,-5.01 4.84,-9.32 9.32,-12.46 l 75.24,-52.58 c 1.97,-1.36 3.31,-3.45 3.74,-5.81 l 42.18,-232.63 c 3.26,-18 -4.6,-35.98 -20.02,-45.82 l -406.851,-259.75 -9.781,15.3 406.862,259.75 c 9.2,5.85 13.88,16.57 11.93,27.28 l -41.51,228.95 -72.18,50.44 c -7.76,5.43 -13.36,12.95 -16.2,21.76 -4.66,14.42 -7.972,37.58 2.73,65.94 5.32,14.1 13.99,24.27 23.43,31.58 -10.26,-1.58 -20.22,-4.18 -29.7,-7.8 C 927,2277.43 876.715,2219.79 846.656,2185.35 l -1.629,-1.88 C 829.379,2165.57 817.656,2143.61 811.176,2120 761.422,1939.24 683.734,1841.7 503.281,1733.43 335.398,1632.71 77.668,1465.35 27.7031,1432.82 c -5.9726,-3.89 -9.5508,-10.5 -9.5508,-17.67 v -50.45 c 0,-6.18 2.3399,-12.09 6.4297,-16.23 71.0078,-71.73 167.07,-109.17 205.074,-121.94 2.621,-0.9 4.59,0.13 5.528,0.82 1.648,1.18 2.586,3.03 2.586,5.08 v 69.58 c 0,12.57 6.328,24.11 16.91,30.87 l 361.758,230.83 9.746,-15.3 -361.739,-230.82 c -5.332,-3.41 -8.523,-9.24 -8.523,-15.58 v -69.58 c 0,-7.84 -3.789,-15.25 -10.141,-19.83 -4.215,-3.01 -9.109,-4.58 -14.09,-4.58" /><path
         id="path16"
         style="fill:#231f20;fill-opacity:1;fill-rule:nonzero;stroke:none"
         d="m 3502.67,1340.25 v -0.02 c 0,0.01 0,0.02 0,0.02 z m -3.93,-1.76 h 0.02 z M 3056.03,1193.95 C 2950.66,963.031 2774.32,780.41 2752.04,765.57 c -12.97,-8.879 -281.8,-248.769 -529.03,-470.308 -4.63,-4.153 -7.66,-9.633 -8.75,-15.852 l -14.99,-86.89 c -1.63,-9.411 2.82,-18.93 11.1,-23.649 48.49,-27.699 215.17,-120.3593 324.31,-149.5312 9.94,-2.6406 20.34,-0.8085 28.65,5.0196 70.56,49.5508 350.34,260.6716 987.69,897.2426 5.4,5.398 8.66,12.546 9.18,20.117 l 21.57,325.051 c 0.71,10.66 -3.69,21.13 -11.78,28.01 -15.01,12.76 -53.74,34.23 -68.77,42.38 -28.49,-54.88 -179.43,-80.38 -243.91,-88.87 -9.82,-1.27 -19.66,-0.43 -29.21,2.55 l -92.2,28.81 c -5.66,1.74 -11.99,-0.16 -15.69,-4.84 z M 2543.69,0 c -4.57,0 -9.16,0.601563 -13.68,1.80859 C 2421.78,30.7188 2264.13,117.262 2201.36,153.121 c -14.87,8.488 -22.92,25.578 -19.99,42.488 l 15.01,86.879 c 1.79,10.293 6.81,19.383 14.51,26.293 154.46,138.41 515.44,461.449 531.09,471.899 12.33,8.211 189.17,182.679 298,421.81 l 1.15,1.88 64.87,81.73 c 8.33,10.5 22.56,14.88 35.33,10.86 l 92.19,-28.8 c 7,-2.19 14.26,-2.81 21.42,-1.87 100.61,13.25 214.12,41.5 231.03,81.04 v 0 c 1.6,3.8 4.79,6.77 8.76,8.16 4.16,1.46 8.75,1.08 12.64,-1.03 16.75,-9.01 57.57,-31.56 74.39,-45.86 12.44,-10.58 19.2,-26.67 18.13,-43.03 l -21.57,-325.058 c -0.8,-11.953 -5.94,-23.231 -14.47,-31.75 C 2925.48,271.16 2644.64,59.2617 2573.76,9.5 2564.84,3.25 2554.36,0 2543.69,0" /><path
         id="path18"
         style="fill:#231f20;fill-opacity:1;fill-rule:nonzero;stroke:none"
         d="M 246.281,1308.75 C 142.59,1389.83 13.5781,1425.9 12.2813,1426.26 l 2.414,8.75 c 1.3086,-0.36 132.0117,-36.88 237.1877,-119.12 l -5.602,-7.14" /><path
         id="path20"
         style="fill:#231f20;fill-opacity:1;fill-rule:nonzero;stroke:none"
         d="m 829.055,1683.26 -4.645,7.79 c 164.91,97.95 205.3,308.31 213.76,370.45 1.33,9.74 4.71,19.02 10.06,27.63 23.38,37.76 52.08,63.52 53.31,64.6 l 6.02,-6.78 c -0.28,-0.25 -28.96,-26 -51.62,-62.61 -4.67,-7.51 -7.62,-15.6 -8.77,-24.05 -8.59,-63.17 -49.713,-277.02 -218.115,-377.03" /><path
         id="path22"
         style="fill:#231f20;fill-opacity:1;fill-rule:nonzero;stroke:none"
         d="m 1041.2,2061.31 c -150.231,87.35 -225.63,88.72 -226.376,88.72 l 0.016,9.07 c 3.121,0 78.148,-1.11 230.93,-89.94 l -4.57,-7.85" /><path
         id="path24"
         style="fill:#231f20;fill-opacity:1;fill-rule:nonzero;stroke:none"
         d="m 2564.93,12.4688 h -9.07 V 99.332 C 2431,182.84 2209.45,286.82 2207.21,287.859 l 3.83,8.231 c 2.27,-1.059 226.84,-106.442 351.89,-190.57 l 2,-1.348 V 12.4688" /><path
         id="path26"
         style="fill:#231f20;fill-opacity:1;fill-rule:nonzero;stroke:none"
         d="m 2563.13,98.1484 -5.49,7.2036 c 3.29,2.527 332.83,254.796 516.29,447.109 158.41,166.09 248.2,321.449 282.57,488.959 2.32,11.29 6.45,21.66 12.27,30.83 31.77,50.26 141.56,214.3 219.99,214.59 l 0.04,-9.07 c -73.81,-0.27 -181.22,-161.1 -212.38,-210.38 -5.21,-8.24 -8.93,-17.59 -11.02,-27.8 C 3330.67,870.352 3240.13,713.57 3080.5,546.199 2896.53,353.352 2566.45,100.68 2563.13,98.1484" /><path
         id="path28"
         style="fill:#231f20;fill-opacity:1;fill-rule:nonzero;stroke:none"
         d="m 3361.79,1051.86 c -2,1.08 -202.72,108.09 -314.89,142.54 l 2.67,8.66 c 113.01,-34.69 314.5,-142.11 316.51,-143.2 l -4.29,-8" /><path
         id="path30"
         style="fill:#231f20;fill-opacity:1;fill-rule:nonzero;stroke:none"
         d="M 2185.59,194.629 242.594,1224.41 l 8.508,16.04 1942.998,-1029.77 -8.51,-16.051" /><path
         id="path32"
         style="fill:#231f20;fill-opacity:1;fill-rule:nonzero;stroke:none"
         d="M 2199.36,254.512 246.969,1278.29 l 4.219,8.03 1952.392,-1023.781 -4.22,-8.027" /><path
         id="path34"
         style="fill:#231f20;fill-opacity:1;fill-rule:nonzero;stroke:none"
         d="m 662.535,1513.84 450.905,-221.01 75.08,53.26 -2.44,19.35 -327.494,157.8 c -0.992,0.41 -33.145,14.4 -61.84,44.63 -26.621,28.05 -50.711,45.59 -90.519,44.43 -36.973,-14.28 -77.454,-36.7 -79.672,-47.87 -0.035,-0.25 -0.086,-0.5 0.269,-1 l 35.711,-18.22 z m 452.605,-242.05 -470.753,230.74 v 31.57 l -29.297,15.35 c -5.426,5.1 -7.676,11.68 -6.328,18.5 5.277,26.73 72.086,54.11 92.433,61.86 l 2.922,0.59 c 46.563,1.66 76.219,-18.85 105.778,-50.03 26.019,-27.41 55.902,-40.49 56.207,-40.62 l 336.738,-162.24 5.08,-39.92 -92.78,-65.8" /><path
         id="path36"
         style="fill:#231f20;fill-opacity:1;fill-rule:nonzero;stroke:none"
         d="m 288.66,1272.86 -44.062,25.21 4.5,7.87 39.347,-22.5 362.586,228.58 4.86,-7.67 -367.231,-231.49" /><path
         id="path38"
         style="fill:#231f20;fill-opacity:1;fill-rule:nonzero;stroke:none"
         d="m 788.68,1586.86 -4.856,7.67 550.926,347.35 4.86,-7.67 -550.93,-347.35" /><path
         id="path40"
         style="fill:#231f20;fill-opacity:1;fill-rule:nonzero;stroke:none"
         d="m 293.09,1278.03 -9.074,0.24 0.832,31.63 2.019,1.31 364.153,232.27 4.886,-7.66 -362.125,-230.97 -0.691,-26.82" /><path
         id="path42"
         style="fill:#231f20;fill-opacity:1;fill-rule:nonzero;stroke:none"
         d="m 286.977,1303.49 -29.743,17.85 4.676,7.79 29.742,-17.86 -4.675,-7.78" /><path
         id="path44"
         style="fill:#231f20;fill-opacity:1;fill-rule:nonzero;stroke:none"
         d="m 762.535,1605.36 -4.816,7.69 575.211,359.99 4.82,-7.69 -575.215,-359.99" /><path
         id="path46"
         style="fill:#231f20;fill-opacity:1;fill-rule:nonzero;stroke:none"
         d="m 770.23,1557.84 c -5.3,0 -10.281,-0.99 -14.425,-2.98 -4.664,-2.21 -7.871,-5.53 -9.309,-9.57 -1.894,-5.34 -0.547,-11.6 3.793,-17.62 4.715,-6.51 12.234,-11.85 21.164,-15.01 8.949,-3.18 18.129,-3.74 25.91,-1.66 7.164,1.96 12.145,5.97 14.039,11.31 v 0 c 1.895,5.35 0.547,11.61 -3.793,17.63 -4.711,6.51 -12.23,11.85 -21.164,15.01 -5.437,1.93 -10.988,2.89 -16.215,2.89 z m 17.403,-57.14 c -6.274,0 -12.813,1.14 -19.211,3.4 -10.652,3.79 -19.707,10.26 -25.488,18.26 -6.129,8.52 -7.903,17.73 -4.985,25.96 2.239,6.36 7.059,11.45 13.938,14.73 10.347,4.97 24.402,5.11 37.593,0.46 10.649,-3.78 19.708,-10.27 25.489,-18.26 6.133,-8.51 7.902,-17.72 4.98,-25.97 v 0 c -2.91,-8.23 -10.09,-14.28 -20.211,-17.03 -3.828,-1.04 -7.906,-1.55 -12.105,-1.55" /><path
         id="path48"
         style="fill:#231f20;fill-opacity:1;fill-rule:nonzero;stroke:none"
         d="m 1561.99,1756.58 c 5,-6.72 30.12,-34.6 116.97,-59.67 99.82,-28.87 191,22.45 203.46,52.14 v 7.68 l -51.76,21.85 c -13.24,5.58 -23.59,16.47 -28.39,29.84 -5.09,14.21 -7.23,32.11 -6.4,53.22 0.55,13.89 0.72,25 0.85,34.02 0.44,29.18 0.62,40.1 13.39,52.94 11.51,11.56 45.15,36.15 57.4,44.99 -3.74,25.27 -23.56,135.19 -87.91,166.75 -72.65,35.59 -155.99,-35.33 -168.39,-53.21 -23.64,-34.17 -40.66,-155.35 -49.22,-350.55 z m 177.9,-86.41 c -21.25,0 -43.47,2.81 -65.97,9.29 -107.19,30.95 -127.33,66.7 -129.28,70.67 l -1.01,2.08 0.09,2.3 c 8.93,206.01 26.13,324.73 52.57,362.95 16.09,23.24 108.38,99.86 191.28,59.17 81.48,-39.94 98.01,-180.27 98.69,-186.22 l 0.58,-5.3 -4.33,-3.1 c -0.47,-0.33 -46.73,-33.37 -59.52,-46.21 -7.42,-7.44 -7.7,-12.31 -8.12,-40.41 -0.15,-9.14 -0.3,-20.39 -0.85,-34.47 -0.75,-18.77 1.05,-34.38 5.33,-46.38 3.09,-8.6 9.79,-15.62 18.36,-19.25 l 62.85,-26.53 -0.49,-24.37 c -11.49,-32.96 -78.67,-74.22 -160.18,-74.22" /><path
         id="path50"
         style="fill:#231f20;fill-opacity:1;fill-rule:nonzero;stroke:none"
         d="m 1766.55,2057.39 c -3.56,0 -7.16,1.31 -10.01,3.93 -86.89,79.54 -144.09,54.39 -144.63,54.14 l -3.89,8.19 c 2.54,1.23 62.86,28.38 154.65,-55.63 2.11,-1.95 5.25,-2.07 7.27,-0.29 17.44,15.45 49.89,41.66 71.2,43.63 l 0.81,-9.04 c -13.47,-1.25 -38.14,-16.71 -65.99,-41.37 -2.67,-2.38 -6.02,-3.56 -9.41,-3.56" /><path
         id="path52"
         style="fill:#231f20;fill-opacity:1;fill-rule:nonzero;stroke:none"
         d="m 1729.56,1679.27 c -2.27,191.66 31.23,381.58 31.57,383.48 l 8.93,-1.6 c -0.34,-1.88 -33.68,-191 -31.43,-381.77 l -9.07,-0.11" /><path
         id="path54"
         style="fill:#231f20;fill-opacity:1;fill-rule:nonzero;stroke:none"
         d="m 1059.81,2259.77 488.48,-207.29 c 6.19,27.48 12.13,43.58 15.14,50.76 l -446.97,185.44 v 0 c -0.04,0.02 -17.36,5.88 -35.91,-3.6 -15.78,-8.03 -19.75,-19.88 -20.74,-25.31 z m 102.09,-155.5 370.81,-159.56 c 3.51,41.69 8.57,74.15 13.65,98.74 l -486.89,206.6 v -15.06 l 85.24,-42.46 z m 378.84,-172.89 -386.81,166.45 -17.27,88.57 -86.26,42.97 v 27.54 c 0,0.94 0.3,23.16 26.04,36.25 22.2,11.34 42.44,4.28 43.3,3.98 l 455.99,-189.17 -2.22,-4.37 c -0.21,-0.45 -22.89,-46.55 -32.27,-165.91 l -0.5,-6.31" /><path
         id="path56"
         style="fill:#231f20;fill-opacity:1;fill-rule:nonzero;stroke:none"
         d="m 3300.98,1298.91 -1462.59,617.97 3.54,8.36 1462.6,-617.96 -3.55,-8.37" /><path
         id="path58"
         style="fill:#231f20;fill-opacity:1;fill-rule:nonzero;stroke:none"
         d="m 1898.86,1962.89 c -1.32,0 -2.62,-0.46 -3.67,-1.35 l -43.37,-36.57 c -4.52,-3.82 -7.13,-9.42 -7.13,-15.36 v -81.22 c 0,-5.08 3,-9.67 7.65,-11.71 l 1203.85,-527.45 c 1.43,-0.63 3.21,-0.26 4.3,1.01 l 23.71,31.41 c 21.71,27.6 51.43,16.64 64.11,11.99 2.04,-0.76 3.63,-1.39 4.68,-1.58 l 99.11,-33.75 c 11.31,1.82 106.91,17.55 151.77,39.26 l -1502.79,624.86 c -0.73,0.3 -1.47,0.46 -2.22,0.46 z m 1158.73,-683.02 c -1.69,0 -3.41,0.35 -5.03,1.05 l -1203.87,527.44 c -7.94,3.5 -13.07,11.35 -13.07,20.03 v 81.22 c 0,8.62 3.78,16.75 10.35,22.3 l 43.37,36.56 c 4.24,3.6 10.07,4.51 15.23,2.34 l 1519.92,-631.99 -7.72,-4.62 c -43.7,-26.19 -159.48,-44.27 -164.39,-45.02 l -1.09,-0.17 -1.07,0.35 -99.56,33.94 c -0.72,0.1 -2.83,0.84 -5.49,1.82 -12.65,4.67 -36.2,13.35 -53.8,-9.02 l -23.79,-31.51 c -2.58,-3.07 -6.26,-4.72 -9.99,-4.72" /><path
         id="path60"
         style="fill:#231f20;fill-opacity:1;fill-rule:nonzero;stroke:none"
         d="m 1552.76,1825.89 -226.5,105.21 v 32.05 l -208.56,87.06 6.98,16.75 219.73,-91.72 v -32.57 l 216.01,-100.31 -7.66,-16.47" /><path
         id="path62"
         style="fill:#231f20;fill-opacity:1;fill-rule:nonzero;stroke:none"
         d="m 3039.04,1169.71 -1200.85,525.08 7.27,16.62 1200.85,-525.07 -7.27,-16.63" /><path
         id="path64"
         style="fill:#231f20;fill-opacity:1;fill-rule:nonzero;stroke:none"
         d="m 1105.24,1310.93 -2.66,1.29 c -1.45,0.7 -145.908,70.33 -261.416,122.9 -89.101,40.55 -107.976,58.82 -129.812,79.98 -6.754,6.54 -13.758,13.3 -23.274,21.03 -37.273,30.24 -67.762,19.65 -68.062,19.56 l -3.118,8.52 c 1.469,0.52 35.657,12.44 76.887,-21.03 9.836,-7.98 16.981,-14.89 23.871,-21.57 21.239,-20.57 39.582,-38.33 127.262,-78.23 106.969,-48.68 238.712,-111.98 258.952,-121.72 13.54,11.35 70.6,57.88 91.32,54.29 l -1.45,-8.95 c -13.53,1.88 -60.21,-32.03 -86.25,-54.15 l -2.25,-1.92" /><path
         id="path66"
         style="fill:#231f20;fill-opacity:1;fill-rule:nonzero;stroke:none"
         d="m 1102.12,1285.74 -2.09,30.25 9.03,0.62 2.1,-30.25 -9.04,-0.62" /><path
         id="path68"
         style="fill:#231f20;fill-opacity:1;fill-rule:nonzero;stroke:none"
         d="m 2943.94,1011.11 -1859.95,837.23 3.72,8.28 1859.95,-837.22 -3.72,-8.29" /><path
         id="path70"
         style="fill:#231f20;fill-opacity:1;fill-rule:nonzero;stroke:none"
         d="m 1550.93,1780.85 -415.95,187.24 3.72,8.28 415.96,-187.24 -3.73,-8.28" /><path
         id="path72"
         style="fill:#231f20;fill-opacity:1;fill-rule:nonzero;stroke:none"
         d="m 3011.16,1123.56 -1233.09,555.05 3.72,8.28 1233.09,-555.05 -3.72,-8.28" /></g></g></svg>