<?xml version="1.0" encoding="UTF-8" standalone="no"?>
<svg
   xmlns:dc="http://purl.org/dc/elements/1.1/"
   xmlns:cc="http://creativecommons.org/ns#"
   xmlns:rdf="http://www.w3.org/1999/02/22-rdf-syntax-ns#"
   xmlns:svg="http://www.w3.org/2000/svg"
   xmlns="http://www.w3.org/2000/svg"
   viewBox="0 0 480 241.46667"
   height="241.46667"
   width="480"
   xml:space="preserve"
   id="svg2"
   version="1.1"><metadata
     id="metadata8"><rdf:RDF><cc:Work
         rdf:about=""><dc:format>image/svg+xml</dc:format><dc:type
           rdf:resource="http://purl.org/dc/dcmitype/StillImage" /></cc:Work></rdf:RDF></metadata><defs
     id="defs6" /><g
     transform="matrix(1.3333333,0,0,-1.3333333,0,241.46667)"
     id="g10"><g
       transform="scale(0.1)"
       id="g12"><path
         id="path14"
         style="fill:#231f20;fill-opacity:1;fill-rule:nonzero;stroke:none"
         d="m 1879.85,1008.69 c -51.19,0 -92.83,-41.659 -92.83,-92.85 0,-51.195 41.64,-92.836 92.83,-92.836 51.2,0 92.85,41.641 92.85,92.836 0,51.191 -41.65,92.85 -92.85,92.85 z m 0,-204.178 c -61.38,0 -111.32,49.937 -111.32,111.328 0,61.394 49.94,111.34 111.32,111.34 61.4,0 111.35,-49.946 111.35,-111.34 0,-61.391 -49.95,-111.328 -111.35,-111.328" /><path
         id="path16"
         style="fill:#231f20;fill-opacity:1;fill-rule:nonzero;stroke:none"
         d="m 2965.04,1677.04 c -143.23,0 -259.75,-116.52 -259.75,-259.76 0,-143.23 116.52,-259.75 259.75,-259.75 143.22,0 259.74,116.52 259.74,259.75 0,143.24 -116.52,259.76 -259.74,259.76 z m 0,-538 c -153.43,0 -278.25,124.82 -278.25,278.24 0,153.43 124.82,278.25 278.25,278.25 153.42,0 278.24,-124.82 278.24,-278.25 0,-153.42 -124.82,-278.24 -278.24,-278.24" /><path
         id="path18"
         style="fill:#231f20;fill-opacity:1;fill-rule:nonzero;stroke:none"
         d="m 2874.16,562.09 c -177.73,0 -315.56,-58.738 -330.93,-151.86 -19.3,-117.082 162.09,-244.789 404.35,-284.761 118.42,-19.528 233.35,-15.188 323.63,12.293 88.05,26.758 141.59,72.058 150.73,127.527 v 0 c 19.3,117.051 -162.08,244.77 -404.33,284.762 -49.51,8.16 -97.82,12.039 -143.45,12.039 z M 3090.49,94.9688 c -47.1,0 -96.23,4.0625 -145.92,12.2502 -252.32,41.621 -440.55,178.883 -419.59,306 20.97,127.121 243.33,196.582 495.63,155.082 252.33,-41.641 440.55,-178.903 419.59,-306.02 v 0.02 C 3429.84,199.488 3371.74,148.98 3276.59,120.059 3221.76,103.391 3158.22,94.9688 3090.49,94.9688" /><path
         id="path20"
         style="fill:#231f20;fill-opacity:1;fill-rule:nonzero;stroke:none"
         d="m 2965.04,1786.3 c -168.58,0 -315.57,-113.89 -357.44,-276.94 -110.24,-373.86 -701.44,-435.37 -726.55,-437.8 -87.02,-0.06 -156.85,-69.89 -156.85,-155.72 0,-85.824 69.83,-155.66 155.65,-155.66 l 163.71,-14.692 c 49.55,44.641 481.64,421.982 816.42,317.992 l 2.77,-0.87 c 33.1,-9.52 67.48,-14.35 102.29,-14.35 203.49,0 369.01,165.54 369.01,369.02 0,203.48 -165.52,369.02 -369.01,369.02 z M 2052.19,719.961 1878.75,735.559 c -0.02,0 -0.06,0 -0.09,0 -98.28,0 -179.12,80.882 -179.12,180.281 0,99.43 80.88,180.32 180.31,180.32 4.8,0.53 598.57,62.31 703.98,419.77 44.57,173.53 201.37,295.03 381.21,295.03 217.08,0 393.68,-176.6 393.68,-393.68 0,-217.07 -176.6,-393.69 -393.68,-393.69 -38.2,0 -75.98,5.47 -112.25,16.24 l -11.27,3.36 c -333.41,91.54 -780.8,-315.35 -785.33,-319.542 l -4,-3.687" /><path
         id="path22"
         style="fill:#231f20;fill-opacity:1;fill-rule:nonzero;stroke:none"
         d="m 69.918,759.031 c 14.6093,-6.121 31.973,-11.761 46.352,-11.812 662.097,-69 1412.91,8.203 1564.59,25.34 -19.78,20.043 -46.94,55.464 -55.59,104.879 -9.2,52.652 8.07,99.492 21.17,125.672 C 824.395,915.266 217.016,790.641 69.918,759.031 Z m 645.867,-64.703 c -196.015,0 -402.406,7.594 -600.828,28.301 C 78.2031,722.66 28.7188,751.68 26.6367,752.91 L 0,768.691 30.1641,775.539 C 36.8594,777.09 710.039,929.195 1667.93,1030.2 l 26.95,2.84 -15.57,-22.2 c -0.41,-0.6 -41.74,-60.52 -29.74,-129.164 11.98,-68.555 66.8,-107.645 67.35,-108.028 l 26.21,-18.359 -31.73,-3.988 c -6.2,-0.781 -462.26,-56.973 -995.615,-56.973" /><path
         id="path24"
         style="fill:#231f20;fill-opacity:1;fill-rule:nonzero;stroke:none"
         d="M 33.6719,754.301 32.1523,772.75 C 43.2422,773.672 1141.16,864.313 1366.61,898.629 l 217.53,118.731 8.86,-16.23 -221.97,-120.536 C 1148.57,846.371 44.8008,755.219 33.6719,754.301" /><path
         id="path26"
         style="fill:#231f20;fill-opacity:1;fill-rule:nonzero;stroke:none"
         d="m 2391.84,384.898 c 23.83,-150.539 252.47,-297.2378 541.64,-344.9371 325.7,-53.7422 612.8,36.168 639.88,200.3481 27.07,164.222 -215.91,341.5 -541.65,395.25 -6.31,1.019 -12.65,2.031 -18.96,2.941 l 0.26,1.738 C 2938.45,647.32 2412.25,786.77 2292.86,832.047 2271.54,819.754 2187.69,769.84 2150.87,725.359 2335.01,629.98 2387.96,409.559 2390.18,400 l 3.49,-15.102 z M 3116.31,0 C 3056.45,0 2993.69,5.03125 2929.45,15.6289 2620.91,66.5195 2378.54,230.172 2365.68,396.27 v 0.039 c -5.66,22.019 -63.62,231.363 -238.73,313.339 l -12.81,6 7.7,11.883 c 37.75,58.309 158.88,126.059 164.01,128.918 l 5.12,2.844 5.45,-2.168 c 172.25,-68.605 715.41,-193.164 720.87,-194.414 5.45,-0.75 11.91,-1.762 18.39,-2.82 339.2,-55.95 591.29,-245.981 562.01,-423.582 C 3573.94,92.3398 3372.41,0 3116.31,0" /><path
         id="path28"
         style="fill:#231f20;fill-opacity:1;fill-rule:nonzero;stroke:none"
         d="m 187.645,1596.79 c 110.441,-61.23 512.71,-279.25 1100.725,-541.57 l 402.71,43.5 c 12.21,11.6 24.89,21.07 35.13,27.96 -131.84,55.37 -831.679,341.82 -1489.589,467.77 -13.937,4.14 -32.504,3.91 -48.976,2.34 z m 1096.755,-566.81 -3.03,1.36 c -695.222,310 -1132.249,558.69 -1136.585,561.17 l -26.793,15.31 29.961,7.37 c 2.36,0.58 58.102,14.06 94.516,3.19 C 970.336,1479.1 1750.22,1143.36 1758.01,1139.99 l 23.68,-10.27 -22.86,-11.98 c -0.29,-0.15 -29.02,-15.35 -53.54,-39.6 l -3.06,-3.03 -417.83,-45.13" /></g></g></svg>