<?xml version="1.0" encoding="UTF-8" standalone="no"?>
<svg
   xmlns:dc="http://purl.org/dc/elements/1.1/"
   xmlns:cc="http://creativecommons.org/ns#"
   xmlns:rdf="http://www.w3.org/1999/02/22-rdf-syntax-ns#"
   xmlns:svg="http://www.w3.org/2000/svg"
   xmlns="http://www.w3.org/2000/svg"
   viewBox="0 0 321.34668 480"
   height="480"
   width="321.34668"
   xml:space="preserve"
   id="svg2"
   version="1.1"><metadata
     id="metadata8"><rdf:RDF><cc:Work
         rdf:about=""><dc:format>image/svg+xml</dc:format><dc:type
           rdf:resource="http://purl.org/dc/dcmitype/StillImage" /></cc:Work></rdf:RDF></metadata><defs
     id="defs6" /><g
     transform="matrix(1.3333333,0,0,-1.3333333,0,480)"
     id="g10"><g
       transform="scale(0.1)"
       id="g12"><path
         id="path14"
         style="fill:#231f20;fill-opacity:1;fill-rule:nonzero;stroke:none"
         d="M 58.4844,3379.98 C 311.957,3236.01 621.629,2823.76 659.375,2753.17 c 36.277,-67.82 33.832,-165.34 31.203,-203.07 l 1694.102,276.01 c 2.81,27.62 8.11,117.5 -33.24,176.5 -49,69.89 -400.4,455.13 -698.62,570.62 l -2.65,1.02 c -12.84,2.88 -101.85,13.05 -668.58,-34.16 C 435.711,3494.61 147.582,3410.2 58.4844,3379.98 Z m 618.6206,-855.78 -6.402,4.6 c -3.199,3.02 -4.797,7.26 -4.387,11.64 2.082,21.22 10.489,130.54 -27.546,201.7 -37.7,70.45 -350.09,486.2 -601.2309,622.72 -6.4219,3.51 -10.2149,10.45 -9.6211,17.71 0.5937,7.33 5.3008,13.41 12.2929,15.86 75.6371,26.63 366.9731,117.27 939.4141,164.96 411.385,34.29 640.095,44.54 681.215,30.55 l 0.43,1.1 c 303.05,-117.35 659.65,-508.13 709.32,-578.99 54.58,-77.87 37.01,-196.82 36.23,-201.85 l -1.3,-8.4 -1728.415,-281.6" /><path
         id="path16"
         style="fill:#231f20;fill-opacity:1;fill-rule:nonzero;stroke:none"
         d="m 670.547,2526.86 -27.805,21.26 c -4.773,3.66 -8.066,8.76 -9.25,14.37 -1.832,8.69 -15.992,47.46 -121.293,181.75 -13.179,16.81 -26.316,33.77 -39.543,50.84 -116.789,150.75 -237.531,306.63 -456.2068,450.39 -13.18357,8.66 -19.28123,24.6 -15.19139,39.67 l 27.78129,101.97 22.5703,-6.14 -27.7813,-101.96 c -1.4179,-5.27 0.7774,-10.9 5.4649,-13.99 221.941,-145.91 343.914,-303.35 461.867,-455.61 13.18,-17.03 26.293,-33.95 39.453,-50.73 101.668,-129.66 122.434,-175.54 125.77,-191.36 l 28.371,-21.88 -14.207,-18.58" /><path
         id="path18"
         style="fill:#231f20;fill-opacity:1;fill-rule:nonzero;stroke:none"
         d="m 2354.02,2727.73 -0.07,-0.01 c 0.02,0 0.05,0.01 0.07,0.01 z M 74.3164,854.941 665.797,177.922 2313.15,629.949 2344.18,2726.13 669.035,2455.16 c -6.597,-1.02 -13.336,0.65 -18.597,4.67 l -22.618,17.29 c -4.703,3.59 -7.922,8.61 -9.09,14.14 -1.253,5.96 -12.863,42.51 -117.289,175.69 -12.566,16.02 -25.152,32.27 -37.859,48.67 -108.309,139.77 -220.184,284.16 -407.2656,416.04 z M 657.84,151.469 l -4.844,5.519 -601.9804,689.094 -0.0429,4.34 -18.211,2308.848 13.0664,7.48 6.8555,-4.08 C 252.973,3025.59 374.691,2868.53 482.07,2729.96 c 12.676,-16.38 25.243,-32.58 37.782,-48.57 98.375,-125.47 118.527,-169.95 121.769,-185.31 l 23.008,-17.67 1685.601,272.41 c 4.41,0.7 8.79,-0.52 12.2,-3.43 3.4,-2.91 5.32,-7.15 5.27,-11.62 L 2336.27,612.031 657.84,151.469" /><path
         id="path20"
         style="fill:#231f20;fill-opacity:1;fill-rule:nonzero;stroke:none"
         d="m 766.906,0 c -64.402,0 -116.785,57.7109 -116.785,128.641 0,13.441 1.875,26.66 5.551,39.351 l 22.48,-6.543 c -3.086,-10.551 -4.636,-21.59 -4.636,-32.808 0,-58.0199 41.898,-105.2504 93.39,-105.2504 51.496,0 93.395,47.2305 93.395,105.2504 0,29.359 -10.488,56.609 -29.516,76.738 l 16.996,16.09 C 870.945,196.949 883.695,164 883.695,128.641 883.695,57.7109 831.309,0 766.906,0" /><path
         id="path22"
         style="fill:#231f20;fill-opacity:1;fill-rule:nonzero;stroke:none"
         d="m 204.125,623.898 c -64.398,0 -116.7852,57.704 -116.7852,128.641 0,17.199 3.0391,33.922 9.0235,49.68 l 21.8867,-8.321 c -4.98,-13.089 -7.52,-27.007 -7.52,-41.359 0,-58.051 41.903,-105.25 93.395,-105.25 12.449,0 24.535,2.723 35.914,8.063 L 250,634.199 c -14.508,-6.847 -29.953,-10.301 -45.875,-10.301" /><path
         id="path24"
         style="fill:#231f20;fill-opacity:1;fill-rule:nonzero;stroke:none"
         d="m 2175.66,408.43 c -64.4,0 -116.78,57.699 -116.78,128.64 0,4.168 0.2,8.27 0.54,12.328 l 23.31,-2.019 c -0.3,-3.379 -0.46,-6.828 -0.46,-10.309 0,-58.05 41.9,-105.25 93.39,-105.25 51.5,0 93.4,47.2 93.4,105.25 0,21.789 -5.88,42.719 -16.98,60.52 l 19.83,12.379 c 13.44,-21.508 20.54,-46.719 20.54,-72.899 0,-70.941 -52.38,-128.64 -116.79,-128.64" /><path
         id="path26"
         style="fill:#231f20;fill-opacity:1;fill-rule:nonzero;stroke:none"
         d="M 667.664,164.699 H 655.973 V 2466.7 h 11.691 V 164.699" /><path
         id="path28"
         style="fill:#231f20;fill-opacity:1;fill-rule:nonzero;stroke:none"
         d="m 1308.03,3495.13 c -59.67,0 -107.9,-20.68 -111.51,-50.77 -4.23,-35.31 54.28,-72.6 127.8,-81.44 73.45,-8.86 139.18,13.55 143.42,48.86 2,16.64 -9.65,34.24 -32.83,49.56 -24.34,16.12 -58.06,27.44 -94.96,31.87 -10.86,1.3 -21.57,1.92 -31.92,1.92 z m 49.46,-145.93 c -11.14,0 -22.71,0.69 -34.59,2.11 -82.54,9.92 -143.15,51.41 -137.98,94.44 5.18,43.02 73.81,68.97 156.45,59.07 38.63,-4.64 74.15,-16.61 100.02,-33.73 27.04,-17.88 40.52,-39.45 37.96,-60.71 -4.43,-36.85 -55.46,-61.18 -121.86,-61.18" /><path
         id="path30"
         style="fill:#231f20;fill-opacity:1;fill-rule:nonzero;stroke:none"
         d="m 1433.55,3424.35 c -3,-25.02 -51.7,-39.74 -108.76,-32.89 -57.05,6.85 -100.86,32.69 -97.87,57.71 3.01,25.01 51.7,39.74 108.76,32.88 57.05,-6.84 100.87,-32.68 97.87,-57.7" /><path
         id="path32"
         style="fill:#231f20;fill-opacity:1;fill-rule:nonzero;stroke:none"
         d="m 359.18,3400.34 c 58.988,-40.21 261.238,-180.39 419.472,-317.03 l 947.938,131.25 c 3.31,0.47 68.83,9.62 138.71,-49.05 -73.01,107.48 -230.73,323.65 -344.99,366.3 -8.2,3.08 -17.24,4.52 -26.66,4.2 -100.89,-3.1 -628.232,-24.22 -1134.47,-135.67 z M 913.117,2936.3 c -145.226,170.06 -522.777,428.74 -565.359,457.68 -2.992,2.03 -4.5,5.66 -3.836,9.22 0.707,3.64 3.496,6.52 7.129,7.33 508.953,112.76 1040.799,134.05 1142.239,137.18 10.87,0.22 21.49,-1.33 31.13,-4.94 156.27,-58.34 381.35,-416.66 390.85,-431.89 l -9.71,-6.53 c -80.6,111.76 -176.32,98.77 -177.31,98.64 L 790.371,3073.13 c 51.426,-44.98 97.527,-89.29 131.66,-129.22 l -8.914,-7.61" /><path
         id="path34"
         style="fill:#231f20;fill-opacity:1;fill-rule:nonzero;stroke:none"
         d="m 741.324,3102.11 -1.738,11.55 870.874,130.02 c 18.42,2.74 34.72,11.27 45.95,24.01 l 1.26,1.49 c 12.79,15.25 12.99,37.83 0.49,53.7 l -169.28,215.37 9.19,7.22 169.28,-215.36 c 15.9,-20.19 15.6,-48.98 -0.71,-68.44 l -1.44,-1.68 c -13.06,-14.84 -31.89,-24.73 -53,-27.87 L 741.324,3102.11" /><path
         id="path36"
         style="fill:#231f20;fill-opacity:1;fill-rule:nonzero;stroke:none"
         d="m 1589.01,3187.57 c -8.64,16.22 11.04,47.16 15.05,53.21 l 9.74,-6.49 c -8.16,-12.26 -18.39,-33.83 -14.46,-41.21 l -10.33,-5.51" /><path
         id="path38"
         style="fill:#231f20;fill-opacity:1;fill-rule:nonzero;stroke:none"
         d="m 2226.06,2601.13 c -6.21,0 -13.06,-2.66 -18.69,-7.83 -10.11,-9.32 -12.42,-23.33 -5.13,-31.23 7.21,-7.87 21.38,-6.73 31.52,2.61 5.92,5.45 9.41,12.91 9.34,19.94 -0.01,4.42 -1.48,8.32 -4.17,11.29 -3.25,3.51 -7.87,5.22 -12.87,5.22 z m -10.98,-61.75 c -9.79,0 -19.1,3.57 -25.75,10.79 -13.85,15.04 -11.06,40.15 6.17,56.02 17.24,15.88 42.49,16.61 56.31,1.61 l 0.03,-0.02 c 5.61,-6.14 8.75,-14.3 8.81,-23.02 0.11,-12.06 -5.35,-24.09 -15.01,-32.99 -8.93,-8.23 -20.02,-12.39 -30.56,-12.39" /><path
         id="path40"
         style="fill:#231f20;fill-opacity:1;fill-rule:nonzero;stroke:none"
         d="m 2169.81,2540.58 -17.54,0.52 2.58,84.47 108.25,24.68 -2.45,-65.87 -17.55,0.65 1.63,43.04 -72.74,-16.6 -2.18,-70.89" /></g></g></svg>