<?xml version="1.0" encoding="UTF-8" standalone="no"?>
<svg
   xmlns:dc="http://purl.org/dc/elements/1.1/"
   xmlns:cc="http://creativecommons.org/ns#"
   xmlns:rdf="http://www.w3.org/1999/02/22-rdf-syntax-ns#"
   xmlns:svg="http://www.w3.org/2000/svg"
   xmlns="http://www.w3.org/2000/svg"
   viewBox="0 0 335.65332 480"
   height="480"
   width="335.65332"
   xml:space="preserve"
   id="svg2"
   version="1.1"><metadata
     id="metadata8"><rdf:RDF><cc:Work
         rdf:about=""><dc:format>image/svg+xml</dc:format><dc:type
           rdf:resource="http://purl.org/dc/dcmitype/StillImage" /></cc:Work></rdf:RDF></metadata><defs
     id="defs6" /><g
     transform="matrix(1.3333333,0,0,-1.3333333,0,480)"
     id="g10"><g
       transform="scale(0.1)"
       id="g12"><path
         id="path14"
         style="fill:#231f20;fill-opacity:1;fill-rule:nonzero;stroke:none"
         d="m 1101.48,3568.61 c -2.74,0 -5.49,-0.71 -7.92,-2.03 L 117.371,3027.92 c -8.762,-4.85 -8.672,-13.41 -8.441,-15.93 0.25,-2.52 1.754,-10.99 11.269,-14.1 L 1433.18,2567.94 c 4.59,-1.54 9.53,-0.95 13.61,1.53 l 953.8,574.28 c 8.49,5.09 8.15,13.63 7.84,16.11 -0.31,2.49 -2.06,10.84 -11.53,13.73 l -1290.58,394.28 c -1.58,0.49 -3.21,0.74 -4.84,0.74 z m 336.83,-1032.94 c -5.02,0 -10.06,0.77 -14.93,2.4 L 110.406,2968 c -18.406,6.04 -30.9568,21.76 -32.7693,41.04 -1.8125,19.28 7.5977,37.05 24.5543,46.39 l 976.179,538.66 c 11.26,6.2 24.78,7.58 37.13,3.86 l 1290.58,-394.28 c 18.35,-5.62 31.19,-20.9 33.54,-39.97 2.35,-19.03 -6.38,-36.99 -22.83,-46.91 L 1463,2542.52 c -7.55,-4.54 -16.08,-6.85 -24.69,-6.85" /><path
         id="path16"
         style="fill:#231f20;fill-opacity:1;fill-rule:nonzero;stroke:none"
         d="m 212.262,542.039 -8.438,13.262 877.986,559.289 c 9.66,6.08 21.22,7.43 31.75,3.77 L 2325.05,696.422 2319.9,681.559 1108.41,1103.51 c -6.08,2.18 -12.59,1.32 -18.21,-2.21 L 212.262,542.039" /><path
         id="path18"
         style="fill:#231f20;fill-opacity:1;fill-rule:nonzero;stroke:none"
         d="M 1135.3,3438.54 416.129,3041.7 c -5.695,-3.13 -8.719,-8.87 -8.117,-15.35 0.609,-6.47 4.664,-11.57 10.851,-13.6 l 967.287,-316.74 c 4.42,-1.41 9.18,-0.92 13.09,1.47 l 702.7,423.09 c 5.51,3.35 8.34,9.15 7.55,15.53 -0.79,6.38 -4.94,11.33 -11.08,13.2 l -950.82,290.5 c -4.02,1.26 -8.53,0.8 -12.31,-1.29 z m 255.82,-759.04 c -3.31,0 -6.64,0.52 -9.87,1.59 l -967.27,316.75 c -12.14,3.96 -20.41,14.33 -21.613,27.04 -1.195,12.71 5.004,24.41 16.184,30.58 l 719.179,396.86 c 7.46,4.02 16.36,5.01 24.45,2.52 L 2103,3164.35 c 12.06,-3.69 20.54,-13.79 22.08,-26.31 1.56,-12.56 -4.2,-24.41 -15.04,-30.91 l -702.68,-423.09 c -4.94,-3.01 -10.58,-4.54 -16.24,-4.54" /><path
         id="path20"
         style="fill:#231f20;fill-opacity:1;fill-rule:nonzero;stroke:none"
         d="m 1450.09,1871.15 c -5.02,0 -10.06,0.77 -14.92,2.39 L 32.9375,2332.7 c -18.4023,6.04 -30.95703,21.76 -32.765625,41.04 L 0,2375.43 77.5273,3017.67 108.75,3013.92 31.6484,2375.31 c 0.6329,-3.41 2.9024,-10.04 11.086,-12.74 L 1444.97,1903.41 c 4.59,-1.53 9.53,-0.95 13.61,1.54 l 1019.47,613.84 c 5.62,3.38 8.57,9.27 7.89,15.78 l -77.26,631.07 31.19,3.8 77.26,-631.34 c 2.03,-18.88 -6.73,-36.53 -22.85,-46.23 L 1474.79,1877.99 c -7.55,-4.54 -16.08,-6.84 -24.7,-6.84" /><path
         id="path22"
         style="fill:#231f20;fill-opacity:1;fill-rule:nonzero;stroke:none"
         d="M 100.43,2227 228.656,482.641 c 0.629,-8.422 6.168,-15.719 14.121,-18.571 L 1445.38,32.082 c 4.16,-1.3828 9.12,-0.7734 13.2,1.6797 L 2296.27,618.84 c 4.14,2.89 6.68,7.43 7.01,12.531 l 103.51,1724.229 -932,-561.2 c -11.82,-7.21 -26.25,-8.81 -39.57,-4.51 z M 1449.86,0 c -4.95,0 -9.89,0.769531 -14.69,2.37109 L 232.137,434.469 c -19.625,7.101 -33.305,25.09 -34.824,45.84 L 65.6484,2271.45 1444.97,1819.79 c 4.54,-1.5 9.53,-0.95 13.58,1.54 l 983.2,591.98 -107.11,-1783.841 c -0.89,-14.739 -8.33,-28 -20.38,-36.41 L 1475.68,7.39844 C 1467.49,2.46094 1458.64,0 1449.86,0" /><path
         id="path24"
         style="fill:#231f20;fill-opacity:1;fill-rule:nonzero;stroke:none"
         d="m 1256.56,3125.54 c -137.9,0 -233.99,-47.46 -233.99,-90.07 0,-42.61 96.09,-90.06 233.99,-90.06 137.88,0 233.96,47.45 233.96,90.06 0,42.61 -96.08,90.07 -233.96,90.07 z m 0,-211.57 c -151.32,0 -265.423,52.24 -265.423,121.5 0,69.26 114.103,121.51 265.423,121.51 151.3,0 265.4,-52.25 265.4,-121.51 0,-69.26 -114.1,-121.5 -265.4,-121.5" /><path
         id="path26"
         style="fill:#231f20;fill-opacity:1;fill-rule:nonzero;stroke:none"
         d="m 1477.67,2985.04 c -39.52,35.91 -126.32,59.09 -221.11,59.09 -94.82,0 -181.61,-23.18 -221.13,-59.07 l -10.55,11.61 c 42.88,38.98 131.66,63.18 231.68,63.18 100,0 188.78,-24.2 231.68,-63.15 l -10.57,-11.66" /><path
         id="path28"
         style="fill:#231f20;fill-opacity:1;fill-rule:nonzero;stroke:none"
         d="m 1459.99,17.2813 h -15.72 V 1803.46 h 15.72 V 17.2813" /><path
         id="path30"
         style="fill:#231f20;fill-opacity:1;fill-rule:nonzero;stroke:none"
         d="m 1105.64,1112.23 h -15.71 v 804.72 h 15.71 v -804.72" /></g></g></svg>