<?xml version="1.0" encoding="utf-8"?>
<!-- Generator: Adobe Illustrator 24.0.0, SVG Export Plug-In . SVG Version: 6.00 Build 0)  -->
<svg version="1.1" xmlns="http://www.w3.org/2000/svg" xmlns:xlink="http://www.w3.org/1999/xlink" x="0px" y="0px"
	 viewBox="0 0 216 216" style="enable-background:new 0 0 216 216;" xml:space="preserve">
<style type="text/css">
	.st0{fill:#BF2A1D;}
	.st1{fill:#FFFFFF;}
</style>
<g id="Layer_1">
</g>
<g id="Layer_2">
</g>
<g id="Layer_3">
	<g>
		<path class="st1" d="M50.37,67.74c-0.16,0-0.32-0.06-0.44-0.17c-0.14-0.14-0.22-0.33-0.2-0.52c0.12-1.18,0.58-7.27-1.54-11.25
			c-2.09-3.91-19.41-26.96-33.34-34.53c-0.31-0.17-0.48-0.49-0.46-0.84c0.03-0.35,0.25-0.63,0.58-0.75
			c4.19-1.47,20.3-6.49,51.96-9.12c16.02-1.33,35.09-2.67,37.65-1.72l0.02-0.04c11.24,4.35,23.39,15.33,29.63,21.49l-0.7,0.71
			c-6.19-6.1-18.22-16.98-29.29-21.27l-0.16-0.06c-0.74-0.17-5.71-0.73-37.06,1.89c-30.89,2.57-46.89,7.4-51.44,8.98
			c14.06,7.8,31.39,30.87,33.49,34.8c2.05,3.84,1.84,9.42,1.7,11.35l38.31-6.24l0.16,0.99l-38.77,6.32
			C50.44,67.74,50.4,67.74,50.37,67.74z"/>
		<path class="st1" d="M49.91,67.66l-1.54-1.18c-0.24-0.18-0.4-0.43-0.46-0.71c-0.1-0.49-0.9-2.66-6.74-10.12
			c-0.73-0.93-1.46-1.87-2.19-2.81c-6.47-8.35-13.16-16.99-25.29-24.96c-0.68-0.45-0.99-1.26-0.78-2.03l1.54-5.64l0.96,0.26
			l-1.54,5.64c-0.1,0.35,0.05,0.73,0.36,0.94c12.26,8.06,19.01,16.77,25.53,25.19c0.73,0.94,1.46,1.88,2.18,2.81
			c5.61,7.15,6.75,9.67,6.93,10.53c0.01,0.06,0.06,0.1,0.09,0.12l1.54,1.18L49.91,67.66z"/>
		<path class="st1" d="M49.17,199.1l-0.21-0.24l-33.29-38.1L14.66,32.87l0.56-0.33l0.31,0.17c11.07,7.58,17.8,16.26,23.73,23.92
			c0.7,0.91,1.4,1.81,2.09,2.69c5.43,6.92,6.53,9.36,6.71,10.2c0.01,0.04,0.04,0.08,0.08,0.11l1.25,0.96
			c0.04,0.03,0.1,0.05,0.15,0.04l38.15-6.17l0.16,0.99L49.71,71.6c-0.32,0.05-0.66-0.03-0.92-0.23l-1.25-0.96
			c-0.23-0.18-0.39-0.42-0.45-0.69c-0.1-0.47-0.87-2.57-6.52-9.79c-0.7-0.89-1.39-1.79-2.1-2.7C32.71,49.8,26.2,41.39,15.67,34.02
			l1,126.36l32.84,37.58l91.38-25.07l0.96-64.85l1,0.01l-0.97,65.6L49.17,199.1z"/>
		<path class="st1" d="M55.15,207.5c-3.48,0-6.32-3.13-6.32-6.97c0-0.73,0.1-1.45,0.3-2.14l0.96,0.28c-0.17,0.6-0.26,1.22-0.26,1.86
			c0,3.29,2.38,5.97,5.32,5.97s5.32-2.68,5.32-5.97c0-1.66-0.59-3.21-1.67-4.35l0.73-0.69c1.26,1.33,1.95,3.12,1.95,5.04
			C61.47,204.37,58.64,207.5,55.15,207.5z"/>
		<path class="st1" d="M24,172.97c-3.48,0-6.32-3.13-6.32-6.97c0-0.94,0.16-1.84,0.49-2.7l0.93,0.36c-0.28,0.74-0.42,1.53-0.42,2.34
			c0,3.29,2.38,5.97,5.32,5.97c0.71,0,1.4-0.16,2.05-0.46l0.43,0.9C25.7,172.78,24.86,172.97,24,172.97z"/>
		<path class="st1" d="M133.13,184.89c-3.48,0-6.32-3.13-6.32-6.97c0-0.23,0.01-0.45,0.03-0.67l1,0.09
			c-0.02,0.19-0.03,0.38-0.03,0.58c0,3.29,2.38,5.97,5.32,5.97s5.32-2.68,5.32-5.97c0-1.23-0.33-2.42-0.96-3.43l0.85-0.53
			c0.73,1.17,1.11,2.54,1.11,3.96C139.45,181.76,136.61,184.89,133.13,184.89z"/>
		<rect x="49.09" y="71.11" class="st1" width="0.5" height="127.42"/>
		<path class="st1" d="M87.85,22.19c-0.62,0-1.25-0.04-1.91-0.12c-2.13-0.26-4.08-0.91-5.51-1.85c-1.47-0.97-2.21-2.14-2.07-3.29
			c0.14-1.15,1.13-2.11,2.79-2.71c1.6-0.58,3.66-0.75,5.79-0.5c4.53,0.54,7.86,2.8,7.57,5.15l0,0
			C94.27,20.87,91.48,22.19,87.85,22.19z M85.06,14.11c-1.38,0-2.67,0.2-3.74,0.58c-1.47,0.53-2.35,1.35-2.46,2.3
			s0.54,1.95,1.85,2.81c1.36,0.9,3.24,1.53,5.29,1.78c4.18,0.5,7.78-0.74,8.02-2.77c0.24-2.03-2.96-4.09-7.14-4.59
			C86.26,14.15,85.65,14.11,85.06,14.11z"/>
		
			<ellipse transform="matrix(0.1192 -0.9929 0.9929 0.1192 58.7467 101.0584)" class="st1" cx="86.33" cy="17.42" rx="2.53" ry="5.76"/>
		<path class="st1" d="M63.3,45.07c-8.06-9.44-28.95-23.75-31.31-25.35c-0.14-0.1-0.21-0.27-0.18-0.44
			c0.03-0.17,0.17-0.31,0.34-0.35c28.16-6.24,57.6-7.42,63.21-7.59c0.6-0.02,1.17,0.07,1.69,0.27c6.31,2.35,14.71,13.65,19.16,20.17
			l-0.41,0.28c-4.41-6.47-12.74-17.68-18.92-19.99c-0.46-0.17-0.97-0.26-1.5-0.24c-5.6,0.17-34.9,1.35-62.98,7.55
			c2.9,1.98,23.31,16.01,31.28,25.35L63.3,45.07z"/>
		<path class="st1" d="M55.73,37.57l-0.07-0.5l52.62-7.29c0.12-0.02,3.13-0.45,6.6,1.94l-0.28,0.41c-3.31-2.27-6.22-1.86-6.25-1.85
			L55.73,37.57z"/>
		<path class="st1" d="M53.73,35.87l-0.07-0.49l48.2-7.2c1.04-0.15,1.96-0.64,2.59-1.35l0.07-0.08c0.73-0.87,0.74-2.16,0.03-3.07
			l-9.37-11.92l0.39-0.31l9.37,11.92c0.86,1.09,0.84,2.65-0.04,3.7l-0.08,0.09c-0.71,0.81-1.74,1.35-2.89,1.52L53.73,35.87z"/>
		<path class="st1" d="M100.72,31.18c-0.47-0.88,0.69-2.67,0.83-2.87l0.42,0.28c-0.44,0.66-1.05,1.89-0.8,2.36L100.72,31.18z"/>
	</g>
	<path class="st1" d="M127.61,112.58c-23.27,0-42.2-18.93-42.2-42.2s18.93-42.2,42.2-42.2s42.2,18.93,42.2,42.2
		S150.88,112.58,127.61,112.58z M127.61,31.93c-21.2,0-38.44,17.25-38.44,38.44s17.25,38.44,38.44,38.44s38.44-17.25,38.44-38.44
		S148.8,31.93,127.61,31.93z"/>
	<path class="st1" d="M156.29,110.6c-0.48,0-0.96-0.18-1.33-0.55c-0.73-0.73-0.73-1.92,0-2.66l9.67-9.67c0.73-0.73,1.92-0.73,2.66,0
		c0.73,0.73,0.73,1.92,0,2.66l-9.67,9.67C157.25,110.42,156.77,110.6,156.29,110.6z"/>
	<path class="st1" d="M198.89,145.42c-0.96,0-1.92-0.37-2.66-1.1l-30.96-30.96c-1.47-1.47-1.47-3.85,0-5.32s3.85-1.47,5.32,0
		L201.55,139c1.47,1.47,1.47,3.85,0,5.32C200.81,145.05,199.85,145.42,198.89,145.42z"/>
	<g>
		<path class="st1" d="M152.73,40.28c0.06,2.7-0.09,4.96-0.22,6.23L90.32,56.64c-0.01,0.36-0.05,0.72-0.12,1.08
			c-0.15,0.76-0.28,1.51-0.41,2.27l65.59-10.69l0.18-1.16c0.04-0.28,0.48-3.23,0.43-7.31C154.86,41.04,153.72,40.89,152.73,40.28z"
			/>
		<path class="st1" d="M146.48,105.34c1.01-0.45,2.14-0.63,3.23-0.55l0.68-46.29c0.01-0.61-0.25-1.18-0.71-1.58
			c-0.46-0.4-1.07-0.56-1.67-0.47l-59.29,9.59c-0.22,1.13-0.45,2.26-0.72,3.38l59.16-9.57L146.48,105.34z"/>
	</g>
	<g>
		<path class="st0" d="M130.24,90.86c-2.13,0-4.16-0.78-5.61-2.35c-1.51-1.63-2.17-3.84-1.86-6.21c0.29-2.24,1.42-4.36,3.2-6
			c1.77-1.63,3.98-2.59,6.23-2.7c2.35-0.09,4.53,0.72,6.03,2.36v0c1.23,1.33,1.92,3.12,1.93,5.02c0.03,2.63-1.16,5.24-3.27,7.18
			C134.95,89.95,132.54,90.86,130.24,90.86z M132.62,77.54c-0.08,0-0.15,0-0.23,0.01c-1.33,0.06-2.66,0.65-3.75,1.65
			c-1.09,1.01-1.78,2.29-1.95,3.6c-0.15,1.19,0.14,2.26,0.84,3.02c1.54,1.67,4.54,1.42,6.69-0.57c1.26-1.16,2.01-2.75,1.99-4.24
			c-0.01-0.66-0.16-1.6-0.88-2.38l0,0C134.68,77.92,133.72,77.54,132.62,77.54z"/>
		<polygon class="st0" points="140.69,66.75 140.16,81.07 136.22,80.92 136.56,71.74 		"/>
		<polyline class="st1" points="136.56,71.74 121.02,75.28 121.03,89.23 117.17,93.51 117.17,72.11 140.69,66.75 		"/>
	</g>
</g>
</svg>
